#!OML:ASF F:\VICON\USERDATA\INSTALL\rory3\rory3.ASF
:FULLY-SPECIFIED
:DEGREES
85
root -0.22313970823075524 17.920391248407093 33.48029123447203 -3.885755587641407 0.8491851107859103 -4.036768477741605
lfemur -7.271629801245384 -1.338067599192641 -15.277279743736088
ltibia 55.86127159707138
lfoot -1.3809596506418726 -6.634550849505187
ltoes -15.783668125968964
rfemur -20.541587195420263 7.082218602128501 28.342563605318972
rtibia 32.61288795158799
rfoot -4.151344302328652 -5.330758108829852
rtoes 8.651088894471695
lowerback 9.306648518220802 -0.8404220067624246 1.0843811459250243
upperback 0.5584360403290026 -0.7678125514425038 2.7362470074228495
thorax -5.053187235647855 -0.4186839087276008 2.2575981196517128
lowerneck -14.88184538927869 -2.678618264812665 -3.012962885531361
upperneck 24.372848387080438 -3.008854271540529 0.6091488566109224
head 10.163822659141758 -1.581497054339303 0.3393572408596396
lclavicle -1.3902065225022772e-15 -1.8465452633209483e-15
lhumerus -33.052630787265414 3.543708305822024 80.65509630205409
lradius 29.454829387899657
lwrist 7.359599892041542
lhand -27.153002606782927 24.33558149861813
lfingers 7.125019999999999
lthumb -0.41109831852215173 54.09315297372752
rclavicle -1.38717936010769e-15 -1.8434642411348583e-15
rhumerus -31.33238200888609 -23.598862784764016 -73.54335128248323
rradius 19.99961458558484
rwrist 9.73750289898323
rhand -17.242572425526173 21.608957087774765
rfingers 7.125019999999999
rthumb 8.864758704787569 -8.528368055509366
86
root -0.2659743348745939 17.94019027266817 33.83472345739897 -4.01278070946595 0.8910795417614079 -4.596666589838064
lfemur -12.203979063986004 -0.16377916961359285 -14.363154210764048
ltibia 58.189378912843864
lfoot -3.6699653285578764 -5.976727334148923
ltoes -16.118737910476113
rfemur -18.40816555211743 7.592248652385792 28.756974794095605
rtibia 32.342410825082325
rfoot -4.174328190317151 -5.629788501936094
rtoes 8.929357050154529
lowerback 9.252901742432757 -0.5649612278697316 1.4269458786816693
upperback 0.5618326720894189 -0.3441094210475275 2.624032410713413
thorax -5.056408754238651 -0.21143671010449117 1.794992199186611
lowerneck -14.766863527431884 -2.8297001460695816 -3.0283754835657932
upperneck 24.192379479828958 -3.2914152517775292 0.8615366579577418
head 10.068952567308193 -1.6830885643767095 0.4072814693566558
lclavicle -1.3886074551076432e-15 -1.8453465885181505e-15
lhumerus -33.44867100559657 3.7684107829869253 80.64871980471389
lradius 29.353961575592546
lwrist 8.160364470213048
lhand -27.421768171888722 23.77149487691165
lfingers 7.125019999999999
lthumb -0.697766406936019 53.4695860181015
rclavicle -1.387377462342719e-15 -1.8436483711570607e-15
rhumerus -30.505038210005786 -22.390219499911016 -74.82625880633665
rradius 20.89039605914085
rwrist 8.230166852262249
rhand -17.511155345614327 20.86602323578503
rfingers 7.125019999999999
rthumb 8.578809769432642 -9.167935279346272
87
root -0.2953198827993385 17.932099078481713 34.13416824078869 -3.8681655916748587 0.4855273771187212 -5.168518901446715
lfemur -16.971638713664934 0.8334908904990672 -13.77351362470134
ltibia 58.09338514606691
lfoot -5.391131873813123 -5.5318242719296125
ltoes -16.2747391959058
rfemur -16.4765464339547 8.115712950079105 29.90589130005838
rtibia 32.23444448443104
rfoot -4.225668139498355 -5.985795407767993
rtoes 9.353871392000872
lowerback 9.315573865056585 -0.14213808588140858 2.135948072266375
upperback 0.514905515574012 0.27689990806739395 2.5063580687273577
thorax -5.152819638002039 0.0914022410217126 1.171036669282495
lowerneck -14.717118858412077 -2.9569473823508106 -2.98624766949572
upperneck 23.92112286999057 -3.5317590623211474 1.008698460018399
head 9.967419951544212 -1.7684059172165405 0.43663644000050567
lclavicle -1.3893363825229092e-15 -1.8458332101294088e-15
lhumerus -33.392172186779916 4.139713213450639 80.8286513163063
lradius 29.180275999436017
lwrist 8.851820009553544
lhand -27.714671889159575 23.23188897604325
lfingers 7.125019999999999
lthumb -0.9412864640610819 53.02285561155628
rclavicle -1.38760224493263e-15 -1.8438578433342953e-15
rhumerus -29.45458093964565 -20.931981156740616 -75.7115858664623
rradius 21.6067956306912
rwrist 6.925265601767328
rhand -17.911458814906283 20.521499814388445
rfingers 7.125019999999999
rthumb 8.217068595220843 -9.327437884496003
88
root -0.30599042446940383 17.894532892298017 34.49253509298743 -3.6160851172566146 0.1056019855801007 -5.300392726913163
lfemur -20.764288996548263 1.325239302998567 -13.674321755776024
ltibia 55.43693279053038
lfoot -6.258250611590973 -5.219056397768297
ltoes -15.76411413111416
rfemur -14.516497147110007 8.105619489412051 30.799848975860005
rtibia 32.19218402968976
rfoot -4.39174778758446 -6.306527574417865
rtoes 9.52780957444193
lowerback 9.418840714281533 0.23478650044209526 2.5809466469543763
upperback 0.5035137061244177 0.7849630140945366 2.3168053871308394
thorax -5.248969822770114 0.3316888082579322 0.5377294486197117
lowerneck -14.800413568133257 -3.0356445748460104 -2.877091429755774
upperneck 23.602447793134033 -3.6867841563065924 1.0037618128605459
head 9.867335701558739 -1.8200238851792128 0.4124160861432367
lclavicle -1.3897641421080743e-15 -1.8459821461502847e-15
lhumerus -33.51696566744938 4.226877418425514 80.96535910204966
lradius 29.188437949143136
lwrist 9.035855130465732
lhand -27.90373227762896 22.916878304465886
lfingers 7.125019999999999
lthumb -1.0242065173500035 52.912409254543256
rclavicle -1.3864746799658798e-15 -1.8428103533813225e-15
rhumerus -28.655274505498 -19.960522425469044 -76.5429967136305
rradius 22.52826264355451
rwrist 5.495496732485859
rhand -18.308351118010716 20.764325343393185
rfingers 7.125019999999999
rthumb 7.897945753938292 -8.975863887376903
89
root -0.2931393196795754 17.827762471637506 35.101500918869434 -3.135544940930431 -0.15666636059453842 -5.6270803407443974
lfemur -23.308670970243348 1.5337431045687957 -13.292369234894913
ltibia 50.316825049597355
lfoot -7.398672354064405 -4.088310860812373
ltoes -14.975728268966018
rfemur -12.662846210862275 8.281322814621802 31.313417514772272
rtibia 31.95229076916962
rfoot -4.618425459689943 -6.722741312529349
rtoes 9.103550991088447
lowerback 9.401068657685313 0.5157302834037645 3.26522888764777
upperback 0.4620422910080682 1.2593517711957718 2.188251699046501
thorax -5.363416538663419 0.5575323709417603 -0.0790965600940281
lowerneck -14.873295254612973 -3.0730665829819803 -2.7698434273541026
upperneck 23.24920890554352 -3.764335051579032 0.9234652850277776
head 9.761906624478433 -1.8408843328940554 0.3640401204782641
lclavicle -1.3855716506388283e-15 -1.8430703209145593e-15
lhumerus -33.6909431909486 4.3646717605849705 81.03022633309286
lradius 29.387450464998405
lwrist 8.893539983593282
lhand -28.00618709970479 22.74399261481616
lfingers 7.125019999999999
lthumb -1.0285373753901574 52.92723423338626
rclavicle -1.3859761633753455e-15 -1.8423475375218137e-15
rhumerus -27.764580723478627 -19.08532150752646 -76.99034837131074
rradius 23.246421003347145
rwrist 4.134359315323671
rhand -18.618693539764767 21.34752813918745
rfingers 7.125019999999999
rthumb 7.666061149483725 -8.388352113820803
90
root -0.29388377173308533 17.77852326723747 35.775792844324485 -3.2048961413952517 -1.291157042194914 -6.604002288303148
lfemur -25.46868406039455 1.6882877214051852 -12.327172141505752
ltibia 43.13295977374589
lfoot -7.8789304281118735 -3.6594987009241207
ltoes -14.603276456712514
rfemur -10.415308390019309 9.07676227440039 32.71776413712281
rtibia 30.903494933066845
rfoot -4.475476136364234 -7.036661160900093
rtoes 8.331744210838089
lowerback 9.729625884303468 1.0602264287824534 4.447771414970827
upperback 0.3314438542773471 2.1074822238182866 2.177054069987687
thorax -5.525872298005146 0.9528362674034216 -0.8276893389810844
lowerneck -14.942111300134659 -3.0846207418356677 -2.6602777396366406
upperneck 22.936414713987826 -3.7909640884689018 0.7949503500169285
head 9.683486580502533 -1.843291525434653 0.29595359956469125
lclavicle -1.384915717932225e-15 -1.8422830344624744e-15
lhumerus -33.95424036391185 4.2542765077888305 81.11249891866225
lradius 29.736050341464498
lwrist 8.502166591314127
lhand -27.981759660895484 22.72106132694775
lfingers 7.125019999999999
lthumb -0.953858219471266 53.010193412536736
rclavicle -1.3854578511352951e-15 -1.841867098521375e-15
rhumerus -26.94458340659554 -18.432122916474786 -77.340598296559
rradius 23.949642424339743
rwrist 2.9344058286167756
rhand -18.816520554170285 22.065488275516962
rfingers 7.125019999999999
rthumb 7.489222797539648 -7.746607782043451
91
root -0.27257064440973433 17.771869861756482 36.245769088742435 -2.1999196926598197 -1.822846890022035 -6.513846298754265
lfemur -26.33580933287648 0.7289036640395787 -12.304159633541481
ltibia 33.57039044777419
lfoot -9.136214977954303 -3.4156295276426754
ltoes -15.275630781909086
rfemur -8.38334819984648 8.992194008805324 33.142459842663484
rtibia 30.116486372357173
rfoot -4.168909989398851 -7.117367402686587
rtoes 7.393088540887465
lowerback 9.10547341452262 1.4174044347847023 4.521508898658707
upperback 0.37183412745708305 2.559041132423365 2.0355109941764193
thorax -5.285035289055792 1.162878944536758 -1.3364369783601602
lowerneck -15.129138667491628 -3.0693781192824163 -2.4914340411599176
upperneck 22.696320564494197 -3.7729144456704855 0.611566638086997
head 9.640766822133555 -1.832298436936036 0.2012626317418924
lclavicle -1.3849646331260225e-15 -1.842257921446183e-15
lhumerus -34.29975056725176 3.8594079338397913 81.18159048670144
lradius 30.30089784006221
lwrist 7.91605704889689
lhand -27.827255576047044 22.80491387196429
lfingers 7.125019999999999
lthumb -0.7953047960856358 53.11928190161488
rclavicle -1.3845854035151298e-15 -1.8410566304339017e-15
rhumerus -26.347626108040167 -18.035726167073918 -77.73665418528964
rradius 24.679426934177982
rwrist 1.8236225473615093
rhand -18.94834811092656 22.765992072412292
rfingers 7.125019999999999
rthumb 7.330692505907259 -7.133981617494286
